<svg xmlns="http://www.w3.org/2000/svg" viewBox="260.6 181.02 3478.4 3638.7" fill="#07c1d8"><path d="M3071.538 1859.992c-122.806 0-242.33-16.406-355.762-46.404-10.311 68.434-15.936 138.742-15.936 209.988 0 119.525 14.999 234.83 43.591 345.449-319.201 46.404-602.778 201.551-812.766 426.538A1388.37 1388.37 0 0 0 1484.44 2484.8c-84.839 250.767-239.049 469.661-440.131 632.777 294.358 67.496 513.721 330.918 513.721 645.901v1.875h.468c142.023 35.622 290.14 54.371 442.944 54.371 107.807 0 213.269-9.843 316.388-28.123 1.407-.469 2.813-.469 4.219-.469 14.062-352.48 304.67-633.714 661.369-633.714 123.743 0 239.517 34.217 338.887 93.276 14.061-14.53 27.186-29.998 40.779-45.466 156.553-177.177 279.828-384.353 358.573-613.09-.469-.469-.937-.938-1.406-.938-182.802-118.118-304.202-323.419-304.202-557.312 0-80.62 14.531-157.491 40.779-228.737-122.805 35.623-251.704 54.841-385.29 54.841zm329.044-1021.349c-28.592 14.531-58.591 26.717-89.058 37.029-66.559 22.499-137.805 35.155-212.332 35.155-366.073 0-662.775-296.702-662.775-662.775 0-4.688.469-9.375.469-14.062-.469 0-.937 0-1.406-.469-139.211-34.217-284.984-52.497-434.975-52.497-107.807 0-213.27 9.843-315.92 28.123-.937 0-2.344.469-3.281.469-14.999 352.949-305.608 634.183-662.306 634.183-124.212 0-240.455-34.217-339.825-93.745l-1.406 1.407c-175.771 185.614-312.17 408.258-397.478 655.275-.468.938-.468 1.406-.937 2.344 182.802 118.118 304.202 323.419 304.202 557.312 0 241.861-129.368 453.255-322.951 569.03v.469c.469 1.406.938 3.281 1.406 4.687 72.184 232.018 189.365 444.35 341.7 626.214 303.264-159.834 539.969-427.944 658.556-753.238.469-.937.938-1.875.938-2.812 53.434-147.179 82.495-306.077 82.495-472.005 0-111.556-13.593-220.3-38.435-324.356 294.358-55.778 555.437-204.364 752.301-413.883 186.083 198.27 429.819 341.699 704.491 403.571l14.062 2.812c94.213 20.155 192.176 31.404 292.483 31.404 234.362 0 454.662-58.121 648.245-160.772 6.562-4.218 13.124-8.905 20.155-13.124-70.777-231.549-187.021-443.881-338.418-625.746z"/></svg>