<svg width="80" height="80" viewBox="0 0 80 80" fill="none" xmlns="http://www.w3.org/2000/svg">
<path d="M75.7156 51.4278H67.1424C66.4358 51.4277 65.7401 51.6023 65.1173 51.9361C64.4945 52.2699 63.9639 52.7525 63.5728 53.341C63.1816 53.9295 62.942 54.6055 62.8753 55.309C62.8086 56.0125 62.9169 56.7215 63.1905 57.373C63.4642 58.0245 63.8946 58.5982 64.4436 59.0431C64.9926 59.488 65.6431 59.7902 66.3371 59.9229C67.0312 60.0555 67.7473 60.0146 68.4217 59.8035C69.096 59.5925 69.7078 59.218 70.2024 58.7134H72.6538C73.1484 59.218 73.76 59.5924 74.4343 59.8035C75.1086 60.0145 75.8246 60.0555 76.5186 59.923C77.2126 59.7904 77.863 59.4883 78.412 59.0435C78.961 58.5988 79.3915 58.0252 79.6653 57.3739C79.939 56.7225 80.0475 56.0136 79.981 55.3102C79.9145 54.6068 79.6751 53.9307 79.2842 53.3422C78.8933 52.7536 78.3629 52.2709 77.7403 51.9369C77.1177 51.6029 76.4222 51.428 75.7156 51.4278V51.4278ZM69.4995 56.0349C69.4995 56.1201 69.4657 56.2019 69.4054 56.2621C69.3451 56.3224 69.2634 56.3563 69.1781 56.3563H67.7853V57.7491C67.7853 57.8344 67.7514 57.9161 67.6911 57.9764C67.6309 58.0367 67.5491 58.0706 67.4639 58.0706H66.821C66.7358 58.0706 66.654 58.0367 66.5937 57.9764C66.5335 57.9161 66.4996 57.8344 66.4996 57.7491V56.3563H65.1068C65.0215 56.3563 64.9398 56.3224 64.8795 56.2621C64.8192 56.2019 64.7853 56.1201 64.7853 56.0349V55.392C64.7853 55.3068 64.8192 55.225 64.8795 55.1647C64.9398 55.1045 65.0215 55.0706 65.1068 55.0706H66.4996V53.6778C66.4996 53.5925 66.5335 53.5108 66.5937 53.4505C66.654 53.3902 66.7358 53.3563 66.821 53.3563H67.4639C67.5491 53.3563 67.6309 53.3902 67.6911 53.4505C67.7514 53.5108 67.7853 53.5925 67.7853 53.6778V55.0706H69.1781C69.2634 55.0706 69.3451 55.1045 69.4054 55.1647C69.4657 55.225 69.4995 55.3068 69.4995 55.392V56.0349ZM75.2852 58.0706C75.0733 58.0706 74.8661 58.0077 74.6899 57.89C74.5137 57.7723 74.3764 57.6049 74.2953 57.4092C74.2142 57.2134 74.193 56.9979 74.2343 56.7901C74.2757 56.5823 74.3777 56.3914 74.5276 56.2415C74.6774 56.0917 74.8683 55.9897 75.0761 55.9483C75.284 55.907 75.4994 55.9282 75.6952 56.0093C75.891 56.0904 76.0583 56.2277 76.176 56.4039C76.2937 56.5801 76.3566 56.7872 76.3566 56.9991C76.3566 57.2833 76.2437 57.5558 76.0428 57.7567C75.8418 57.9577 75.5693 58.0706 75.2852 58.0706V58.0706ZM76.9994 55.4992C76.7875 55.4992 76.5804 55.4363 76.4042 55.3186C76.228 55.2009 76.0907 55.0335 76.0096 54.8378C75.9285 54.642 75.9073 54.4266 75.9486 54.2187C75.9899 54.0109 76.092 53.82 76.2418 53.6701C76.3917 53.5203 76.5826 53.4183 76.7904 53.3769C76.9982 53.3356 77.2137 53.3568 77.4094 53.4379C77.6052 53.519 77.7725 53.6563 77.8903 53.8325C78.008 54.0087 78.0708 54.2158 78.0708 54.4277C78.0708 54.7119 77.958 54.9844 77.757 55.1854C77.5561 55.3863 77.2836 55.4992 76.9994 55.4992Z" fill="black"/>
<path fill-rule="evenodd" clip-rule="evenodd" d="M4.64827 37.5359H28.0549C28.3174 37.5287 28.5788 37.5741 28.8236 37.6694C29.0683 37.7647 29.2916 37.908 29.4801 38.0909C29.6687 38.2737 29.8188 38.4924 29.9216 38.7341C30.0245 38.9758 30.0779 39.2357 30.0788 39.4983V57.4448H28.4473L28.0626 56.8368H26.2079L25.8231 57.0793H6.93391L6.54912 56.8368H4.6983L4.31351 57.4448H2.68202V39.4983C2.68405 38.9778 2.89198 38.4793 3.2604 38.1116C3.62881 37.7439 4.12777 37.5369 4.64827 37.5359ZM16.5929 38.2473C16.522 38.1999 16.4387 38.1747 16.3535 38.1747C16.2392 38.1747 16.1296 38.2201 16.0488 38.3009C15.9679 38.3817 15.9225 38.4913 15.9225 38.6056C15.9225 38.6909 15.9478 38.7742 15.9952 38.8451C16.0425 38.9159 16.1098 38.9712 16.1886 39.0038C16.2673 39.0364 16.354 39.0449 16.4376 39.0283C16.5212 39.0117 16.598 38.9706 16.6582 38.9104C16.7185 38.8501 16.7595 38.7733 16.7762 38.6897C16.7928 38.6061 16.7843 38.5195 16.7516 38.4407C16.719 38.362 16.6638 38.2947 16.5929 38.2473ZM28.0576 54.8464C28.1298 54.7742 28.1703 54.6763 28.1703 54.5743L28.1934 40.0832C28.1934 39.9812 28.1528 39.8833 28.0807 39.8111C28.0085 39.739 27.9107 39.6984 27.8086 39.6984H4.90223C4.80018 39.6984 4.7023 39.739 4.63014 39.8111C4.55798 39.8833 4.51745 39.9812 4.51745 40.0832V54.5743C4.51745 54.6763 4.55798 54.7742 4.63014 54.8464C4.7023 54.9185 4.80018 54.9591 4.90223 54.9591H27.7855C27.8876 54.9591 27.9854 54.9185 28.0576 54.8464ZM19.1701 57.9027H32.3182C32.4116 57.911 32.4987 57.9532 32.5631 58.0212C32.6276 58.0892 32.665 58.1784 32.6684 58.272V58.9146C32.6703 58.93 32.6703 58.9455 32.6684 58.9608C32.6299 59.6111 31.8988 59.9959 31.3063 59.9959H1.36599C0.769569 59.9959 0.0423266 59.6188 0 58.9608V58.2874C0 58.1854 0.0405338 58.0875 0.112695 58.0154C0.184857 57.9432 0.282735 57.9027 0.384787 57.9027H13.4983C13.6004 57.9027 13.6982 57.9432 13.7704 58.0154C13.8426 58.0875 13.8831 58.1854 13.8831 58.2874C13.8831 58.2987 13.8862 58.2907 13.892 58.2758C13.9118 58.2248 13.9629 58.0931 14.0255 58.3913H18.6429C18.7052 58.1067 18.756 58.2287 18.7761 58.2768C18.782 58.2911 18.7853 58.2989 18.7853 58.2874C18.7853 58.1854 18.8258 58.0875 18.898 58.0154C18.9702 57.9432 19.068 57.9027 19.1701 57.9027ZM2.86757 59.1059C2.93829 59.1563 3.02227 59.1848 3.10907 59.1878C3.16847 59.1899 3.22767 59.18 3.28315 59.1587C3.33862 59.1374 3.38924 59.1051 3.43198 59.0638C3.47471 59.0225 3.50868 58.973 3.53187 58.9183C3.55507 58.8636 3.56701 58.8048 3.56697 58.7453C3.56692 58.6585 3.54131 58.5736 3.49333 58.5012C3.44536 58.4288 3.37713 58.3721 3.29717 58.3382C3.2172 58.3043 3.12903 58.2947 3.04364 58.3105C2.95825 58.3264 2.87941 58.3671 2.81696 58.4274C2.75451 58.4878 2.71119 58.5652 2.69242 58.65C2.67364 58.7348 2.68025 58.8232 2.71139 58.9043C2.74254 58.9854 2.79685 59.0555 2.86757 59.1059ZM4.97571 59.1133C5.04848 59.1619 5.13403 59.1878 5.22155 59.1878C5.33891 59.1878 5.45146 59.1412 5.53445 59.0582C5.61743 58.9752 5.66406 58.8627 5.66406 58.7453C5.66406 58.6578 5.63811 58.5723 5.58949 58.4995C5.54086 58.4267 5.47175 58.37 5.39089 58.3365C5.31003 58.303 5.22107 58.2943 5.13523 58.3113C5.04939 58.3284 4.97054 58.3706 4.90865 58.4324C4.84677 58.4943 4.80462 58.5732 4.78755 58.659C4.77047 58.7448 4.77924 58.8338 4.81274 58.9147C4.84623 58.9955 4.90295 59.0646 4.97571 59.1133ZM28.0971 59.0301H30.1173V58.426H28.0971V59.0301Z" fill="black"/>
<path d="M12.8569 45.7136L9.99985 47.8564L12.8569 49.9992" stroke="black" stroke-width="1.42855" stroke-linecap="round" stroke-linejoin="round"/>
<path d="M18.5711 49.9992L21.4282 47.8564L18.5711 45.7136" stroke="black" stroke-width="1.42855" stroke-linecap="round" stroke-linejoin="round"/>
<path d="M17.1426 44.285L14.2855 51.4278" stroke="black" stroke-width="1.42855" stroke-linecap="round" stroke-linejoin="round"/>
<path fill-rule="evenodd" clip-rule="evenodd" d="M20.5682 22.8568H60.0559C60.5855 22.8568 61.0935 23.0672 61.468 23.4417C61.8426 23.8162 62.053 24.3242 62.053 24.8539V38.5708H59.5466V26.3367C59.5466 26.2043 59.494 26.0773 59.4004 25.9837C59.3068 25.89 59.1798 25.8374 59.0473 25.8374H21.6017C21.5341 25.8341 21.4665 25.8445 21.403 25.868C21.3395 25.8916 21.2815 25.9279 21.2325 25.9746C21.1834 26.0213 21.1444 26.0775 21.1178 26.1397C21.0911 26.202 21.0774 26.269 21.0775 26.3367V35.7137H18.5711V24.8539C18.5711 24.3242 18.7815 23.8162 19.1561 23.4417C19.5306 23.0672 20.0386 22.8568 20.5682 22.8568ZM31.4281 51.5052H52.8563V48.2998H31.4281V51.5052ZM40.7191 23.8952C40.6105 23.7865 40.4632 23.7255 40.3096 23.7255C40.2314 23.7235 40.1537 23.7373 40.081 23.7661C40.0083 23.7949 39.9422 23.8382 39.8867 23.8932C39.8312 23.9483 39.7874 24.014 39.7579 24.0864C39.7285 24.1589 39.714 24.2365 39.7154 24.3147C39.7165 24.4537 39.7675 24.5876 39.8592 24.6921C39.9508 24.7966 40.077 24.8647 40.2147 24.8838H40.3096C40.4632 24.8838 40.6105 24.8228 40.7191 24.7142C40.8277 24.6056 40.8887 24.4583 40.8887 24.3047C40.8887 24.1511 40.8277 24.0038 40.7191 23.8952ZM45.0927 55.9437C45.9764 55.9437 46.7502 56.2483 46.7902 57.142H33.829C33.8689 56.2483 34.6428 55.9437 35.5315 55.9437H36.3154L37.0294 52.6735H43.5898L44.3038 55.9437H45.0927Z" fill="black"/>
<line x1="32.1424" y1="30.7138" x2="46.4279" y2="30.7138" stroke="black" stroke-width="1.42855" stroke-linecap="round"/>
<line x1="36.428" y1="39.2851" x2="50.7135" y2="39.2851" stroke="black" stroke-width="1.42855" stroke-linecap="round"/>
<line x1="33.5709" y1="34.9995" x2="36.428" y2="34.9995" stroke="black" stroke-width="1.42855" stroke-linecap="round"/>
<line x1="33.5709" y1="43.5708" x2="44.9993" y2="43.5708" stroke="black" stroke-width="1.42855" stroke-linecap="round"/>
<line x1="39.2851" y1="34.9995" x2="42.1422" y2="34.9995" stroke="black" stroke-width="1.42855" stroke-linecap="round"/>
<path fill-rule="evenodd" clip-rule="evenodd" d="M62.8037 39.9994H55.6381C55.2749 39.9994 54.9266 40.1437 54.6698 40.4004C54.413 40.6572 54.2688 41.0055 54.2688 41.3687V55.7767C54.2688 55.9563 54.3042 56.1342 54.3731 56.3001C54.4419 56.466 54.5429 56.6167 54.6701 56.7435C54.7973 56.8704 54.9483 56.9708 55.1144 57.0392C55.2805 57.1076 55.4584 57.1425 55.6381 57.142H61.6077C61.4901 56.6854 61.4276 56.2067 61.4276 55.7134C61.4276 55.1193 61.5183 54.5463 61.6866 54.0075H55.5856C55.5159 54.0075 55.4491 53.9799 55.3999 53.9306C55.3507 53.8814 55.323 53.8146 55.323 53.745V42.7461C55.323 42.6764 55.3507 42.6097 55.3999 42.5604C55.4491 42.5112 55.5159 42.4835 55.5856 42.4835H62.8562C62.9251 42.4846 62.9909 42.5127 63.0393 42.5618C63.0876 42.611 63.1147 42.6771 63.1147 42.7461V51.6595C63.4273 51.349 63.7755 51.0744 64.1528 50.8424V41.3687C64.1528 41.009 64.0114 40.6637 63.7589 40.4075C63.5065 40.1513 63.1634 40.0047 62.8037 39.9994ZM57.9849 41.3121H60.4852V41.5626H58.001L57.9849 41.3121ZM59.7621 56.1685H58.6958C58.5101 56.1685 58.3319 56.095 58.2002 55.9641C58.0685 55.8332 57.994 55.6554 57.9929 55.4697C57.9929 55.2833 58.067 55.1046 58.1988 54.9728C58.3306 54.8409 58.5094 54.7669 58.6958 54.7669H59.7621C59.9478 54.768 60.1256 54.8425 60.2565 54.9742C60.3874 55.1059 60.4609 55.284 60.4609 55.4697C60.4599 55.6547 60.3859 55.8319 60.2551 55.9627C60.1243 56.0935 59.9471 56.1675 59.7621 56.1685ZM59.7621 55.0295H58.6958C58.579 55.0295 58.467 55.0759 58.3845 55.1585C58.3019 55.241 58.2555 55.353 58.2555 55.4698C58.2566 55.5858 58.3034 55.6968 58.3859 55.7785C58.4683 55.8602 58.5797 55.906 58.6958 55.906H59.7621C59.8782 55.906 59.9896 55.8602 60.072 55.7785C60.1545 55.6968 60.2014 55.5858 60.2024 55.4698C60.2024 55.353 60.156 55.241 60.0735 55.1585C59.9909 55.0759 59.8789 55.0295 59.7621 55.0295Z" fill="black"/>
</svg>