<svg xmlns="http://www.w3.org/2000/svg" xmlns:xlink="http://www.w3.org/1999/xlink" x="0px" y="0px" viewBox="0 0 328.6 258.7">
<style type="text/css">.st0{opacity:0.9;fill:url(#SVGID_1_);enable-background:new;}.st1{opacity:0.2;fill:#FFFFFF;enable-background:new;}</style>
<linearGradient id="SVGID_1_" gradientUnits="userSpaceOnUse" x1="188.7893" y1="716.9435" x2="102.1292" y2="774.9435" gradientTransform="matrix(1 0 0 1 -3.000000e-02 -688.57)"><stop  offset="1.000000e-02" style="stop-color:#43C8BB"/><stop  offset="0.98" style="stop-color:#20B7D2"/></linearGradient>
<path class="st0" d="M220.1,29.6L220.1,29.6c-1.2,0.6-2.5,1.1-3.7,1.6c-2.9,1-5.9,1.5-8.9,1.5c-15.4,0-27.8-12.5-27.8-27.8l0,0c0-0.2,0-0.4,0-0.6l0,0c-10.5-2.6-21.2-2.9-31.7-1.1h-0.1c-0.7,14.9-13,26.6-27.9,26.6c-5,0-10-1.4-14.3-3.9V26C98.3,33.8,92.6,43.2,89,53.5v0.1c8,5.1,12.8,14,12.8,23.4c0,9.8-5.2,18.9-13.6,23.9l0,0v0.2c3,9.6,7.9,18.6,14.4,26.3c12.8-6.8,22.7-18,27.7-31.7v-0.1c2.3-6.4,3.5-13.1,3.5-19.8c0-4.6-0.5-9.2-1.6-13.6c12.1-2.3,23.2-8.4,31.6-17.4c8,8.5,18.3,14.4,29.6,17l0.6,0.1c4,0.9,8.2,1.3,12.3,1.3c9.5,0,18.8-2.3,27.2-6.8c0.3-0.2,0.6-0.4,0.9-0.5C231.4,46.3,226.5,37.4,220.1,29.6z"/><path fill="#fff" d="M206.3,72.5c-5,0-10.1-0.7-14.9-1.9c-1.2,7.8-0.8,15.7,1.2,23.3c-13.1,1.9-25.1,8.2-34.1,17.9c-5.3-5.5-11.7-10-18.8-13.1c-3.5,10.4-9.9,19.6-18.5,26.6c12.6,2.9,21.6,14.2,21.6,27.1c0,0,0,0,0,0.1l0,0c10.4,2.6,21.3,3,31.9,1.1h0.2c0.7-15.4,13.7-27.3,29-26.6c4.6,0.2,9,1.5,13,3.9c0.6-0.6,1.1-1.3,1.7-1.9c6.7-7.5,11.8-16.3,15.1-25.7h-0.1c-11-7-15.6-20.8-11.1-33C217.1,71.8,211.7,72.5,206.3,72.5z"/><path class="st1" d="M233.5,56.4c0.3-0.2,0.6-0.4,0.9-0.5c-3-9.6-7.8-18.5-14.2-26.3c-12.2,7.3-21.5,18.8-26.1,32.3c4,0.9,8.2,1.3,12.3,1.3C215.7,63.2,225.1,60.9,233.5,56.4z"/><path class="st1" d="M88.2,100.9v0.2c3,9.6,7.9,18.6,14.4,26.3c12.8-6.8,22.7-18,27.7-31.7C116.1,92.2,101.1,94.1,88.2,100.9z"/><path fill="#fff" d="M14,226.1v29.6H2.6v-54.6H14v10c1.6-3.3,4.2-6.1,7.4-7.9c3.2-1.9,6.9-2.9,10.6-2.9c8.6,0,14.4,3.6,17.4,10.7c5.3-7.1,12-10.7,20.1-10.7c6.1,0,11.1,1.9,14.8,5.7c3.7,3.8,5.7,9.2,5.6,16.3v33.5H78.5v-30c0-10.1-4.1-15.1-12.4-15.1c-3.7-0.1-7.3,1.3-10.1,3.7c-2.9,2.5-4.4,6.1-4.5,10.9v30.4H40.1v-30c0-5.2-0.9-9-2.8-11.5c-1.8-2.4-4.7-3.6-8.6-3.6c-3.8,0-7.5,1.4-10.3,4C15.5,217.2,14,221.1,14,226.1z"/><path fill="#fff" d="M146.1,248.3c-5.4,5.4-12.2,8.2-20.4,8.2s-14.9-2.7-20.4-8.2c-5.4-5.3-8.3-12.5-8.1-20c-0.2-7.5,2.8-14.7,8.1-20c5.4-5.4,12.2-8.2,20.4-8.2s14.9,2.7,20.4,8.2c5.4,5.3,8.3,12.5,8.1,20C154.4,235.8,151.5,243.1,146.1,248.3zM113.5,241.3c6.8,6.6,17.7,6.6,24.5,0c3.2-3.3,4.8-7.6,4.8-12.9s-1.6-9.5-4.8-12.9c-6.8-6.6-17.7-6.6-24.5,0c-3.2,3.3-4.8,7.6-4.8,12.9C108.6,233.7,110.2,238,113.5,241.3z"/><path fill="#fff" d="M166.3,248.7c-5.1-5.2-7.6-12-7.6-20.5s2.6-15.3,7.8-20.3c4.9-5,11.7-7.7,18.7-7.6c7.2,0,13.1,3.1,17.5,9.2v-18.9l11.4-12.3v77.4h-11.4v-8.2c-4.2,6-10.4,9-18.4,9C177.4,256.5,170.9,253.7,166.3,248.7zM170,228.7c-0.2,4.8,1.6,9.4,5,12.8c3.1,3.2,7.3,4.9,11.7,4.9c4.3,0.1,8.5-1.8,11.4-5c3.2-3.5,4.9-8.1,4.7-12.8c0.1-4.8-1.5-9.4-4.7-13c-2.9-3.4-7.1-5.3-11.5-5.2c-4.5,0-8.7,1.9-11.7,5.2C171.7,219.1,169.9,223.8,170,228.7L170,228.7z"/><path fill="#fff" d="M226.1,254.3c-1.4-1.4-2.2-3.4-2.2-5.4s0.8-4,2.2-5.4c1.4-1.4,3.3-2.2,5.4-2.2c2,0,4,0.8,5.4,2.2c1.5,1.4,2.3,3.4,2.2,5.4c0,2-0.8,4-2.2,5.4c-1.4,1.5-3.4,2.3-5.4,2.3C229.4,256.6,227.5,255.7,226.1,254.3z"/><path fill="#fff" d="M249.6,190.4c-1.4-1.4-2.2-3.1-2.2-5.1s0.7-3.7,2.2-5.1s3.1-2.2,5.1-2.2s3.7,0.7,5.1,2.2s2.2,3.1,2.2,5.1s-0.7,3.7-2.2,5.1s-3.1,2.2-5.1,2.2C252.8,192.5,251.1,191.8,249.6,190.4z M260.4,255.7h-11.5v-54.5h11.5V255.7z"/><path fill="#fff" d="M317.7,248.4c-5.5,5.4-12.3,8.1-20.5,8.1s-15-2.7-20.5-8.1c-5.5-5.4-8.2-12.1-8.2-19.9c0-7.9,2.7-14.5,8.2-19.9c5.5-5.4,12.3-8.1,20.5-8.1s15,2.7,20.5,8.1c5.5,5.4,8.2,12.1,8.2,19.9S323.2,243,317.7,248.4zM284.9,241.3c3.2,3.3,7.4,5,12.3,5c5,0,9.1-1.7,12.3-5c3.2-3.3,4.9-7.6,4.9-12.9s-1.6-9.5-4.9-12.9c-3.2-3.3-7.4-5-12.3-5c-5,0-9.1,1.7-12.3,5c-3.2,3.3-4.9,7.6-4.9,12.9C280,233.7,281.7,238,284.9,241.3z"/></svg>
