<svg version="1.1" xmlns="http://www.w3.org/2000/svg" xmlns:xlink="http://www.w3.org/1999/xlink" x="0px" y="0px" viewBox="0 0 742.2 776.4">
<path fill="#171727" d="M599.6,358.2c-26.2,0-51.7-3.5-75.9-9.9c-2.2,14.6-3.4,29.6-3.4,44.8c0,25.5,3.2,50.1,9.3,73.7 c-68.1,9.9-128.6,43-173.4,91c-26.9-28-59.2-50.6-95.2-66.3c-18.1,53.5-51,100.2-93.9,135c62.8,14.4,109.6,70.6,109.6,137.8 c0,0.1,0,0.2,0,0.4c0,0,0.1,0,0.1,0c30.3,7.6,61.9,11.6,94.5,11.6c23,0,45.5-2.1,67.5-6c0.3-0.1,0.6-0.1,0.9-0.1 C442.7,695,504.7,635,580.8,635c26.4,0,51.1,7.3,72.3,19.9c3-3.1,5.8-6.4,8.7-9.7c33.4-37.8,59.7-82,76.5-130.8 c-0.1-0.1-0.2-0.2-0.3-0.2c-39-25.2-64.9-69-64.9-118.9c0-17.2,3.1-33.6,8.7-48.8C655.6,354.1,628.1,358.2,599.6,358.2z"/><path fill="#171727" d="M737.8,276.6c1.4-0.9,2.8-1.9,4.3-2.8c-15.2-49.4-40.1-94.7-72.3-133.5c-61.6,36.9-109.1,94.8-132.6,163.8 c20.1,4.3,41,6.7,62.4,6.7C649.5,310.8,696.6,298.4,737.8,276.6z"/><path fill="#171727" d="M0,502.4c0.1,0.3,0.2,0.7,0.3,1c15.4,49.5,40.4,94.8,72.9,133.6c64.7-34.1,115.2-91.3,140.5-160.7 c-23.3-5.8-47.7-9-72.9-9C90,467.3,42,480,0,502.4z"/><path fill="#171727" d="M669.8,140.3C669.8,140.3,669.8,140.3,669.8,140.3c-6.1,3.1-12.5,5.7-19,7.9c-14.2,4.8-29.4,7.5-45.3,7.5 c-78.1,0-141.4-63.3-141.4-141.4c0-1,0.1-2,0.1-3c-0.1,0-0.2,0-0.3-0.1C434.2,3.9,403.1,0,371.1,0c-23,0-45.5,2.1-67.4,6 c-0.2,0-0.5,0.1-0.7,0.1c-3.2,75.3-65.2,135.3-141.3,135.3c-26.5,0-51.3-7.3-72.5-20c-0.1,0.1-0.2,0.2-0.3,0.3 c-37.5,39.6-66.6,87.1-84.8,139.8c-0.1,0.2-0.1,0.3-0.2,0.5c39,25.2,64.9,69,64.9,118.9c0,51.6-27.6,96.7-68.9,121.4c0,0,0,0,0,0.1 c0.1,0.3,0.2,0.7,0.3,1c15.4,49.5,40.4,94.8,72.9,133.6c64.7-34.1,115.2-91.3,140.5-160.7c0.1-0.2,0.2-0.4,0.2-0.6 c11.4-31.4,17.6-65.3,17.6-100.7c0-23.8-2.9-47-8.2-69.2c62.8-11.9,118.5-43.6,160.5-88.3c39.7,42.3,91.7,72.9,150.3,86.1 c1,0.2,2,0.4,3,0.6c20.1,4.3,41,6.7,62.4,6.7c50,0,97-12.4,138.3-34.3c1.4-0.9,2.8-1.9,4.3-2.8 C726.9,224.4,702.1,179.1,669.8,140.3z"/></svg>
