<svg xmlns="http://www.w3.org/2000/svg" viewBox="29.6 37.75 689.91 225.25"><path d="M679.425 193.077c-11.202 0-20.682-3.879-28.442-11.638s-11.638-17.137-11.638-28.133 3.879-20.374 11.638-28.133 17.24-11.639 28.442-11.639c11.099 0 20.553 3.905 28.364 11.716s11.716 17.162 11.716 28.056-3.906 20.245-11.716 28.056-17.265 11.715-28.364 11.715zm0-19.731c5.344 0 9.789-1.902 13.334-5.704s5.318-8.581 5.318-14.336-1.772-10.534-5.318-14.337-7.99-5.703-13.334-5.703c-5.55 0-10.072 1.875-13.566 5.626s-5.241 8.556-5.241 14.414 1.747 10.662 5.241 14.413 8.016 5.627 13.566 5.627zm-57.345-67.687c8.17 0 14.644-6.474 14.644-14.49s-6.474-14.491-14.644-14.491c-7.862 0-14.491 6.475-14.491 14.491s6.629 14.49 14.491 14.49zm-11.562 86.185h23.277v-77.077h-23.277zm-17.416.861c6.352 0 11.519-5.167 11.519-11.519s-5.167-11.519-11.519-11.519-11.519 5.168-11.519 11.519 5.167 11.519 11.519 11.519zm-61.319.835c10.328 0 17.881-5.242 20.964-9.404v7.708h23.278V76.229l-23.278 10.994v35.252c-3.083-4.162-10.636-9.403-20.964-9.403-20.194 0-35.764 18.344-35.764 40.234s15.57 40.234 35.764 40.234zm5.241-21.119c-10.483 0-17.574-8.016-17.574-19.115s7.091-19.115 17.574-19.115 17.573 8.016 17.573 19.115-7.091 19.115-17.573 19.115zm-86.634 20.656c-11.202 0-20.683-3.879-28.442-11.638s-11.638-17.137-11.638-28.133 3.879-20.374 11.638-28.133 17.24-11.639 28.442-11.639c11.099 0 20.553 3.905 28.364 11.716s11.716 17.162 11.716 28.056-3.906 20.245-11.716 28.056-17.265 11.715-28.364 11.715zm0-19.731c5.344 0 9.788-1.902 13.334-5.704s5.318-8.581 5.318-14.336-1.773-10.534-5.318-14.337-7.99-5.703-13.334-5.703c-5.55 0-10.072 1.875-13.566 5.626s-5.241 8.556-5.241 14.414 1.747 10.662 5.241 14.413 8.016 5.627 13.566 5.627zm-117.619 18.498v-40.388c0-12.332-4.471-18.499-13.412-18.499-6.063 0-10.739 2.672-14.028 8.016v50.871h-21.119v-77.077h21.119v5.396c4.933-4.419 11.099-6.629 18.499-6.629 8.941 0 16.34 3.34 22.198 10.02 6.063-6.68 14.336-10.02 24.819-10.02s18.369 3.186 23.662 9.558 7.939 14.644 7.939 24.818v43.934h-21.119v-40.388c0-12.332-4.47-18.499-13.411-18.499-6.269 0-11.099 2.827-14.491 8.479.309 1.952.463 4.111.463 6.474v43.934z" fill="#fff"/><path d="M203.605 141.684c-7.602 0-15.001-1.016-22.023-2.873-.638 4.237-.986 8.589-.986 13 0 7.399.928 14.537 2.698 21.384-19.76 2.873-37.315 12.477-50.314 26.405a85.94 85.94 0 0 0-27.623-19.238 85.96 85.96 0 0 1-27.246 39.172c18.222 4.178 31.801 20.485 31.801 39.984v.116h.029c8.792 2.205 17.961 3.366 27.421 3.366 6.673 0 13.202-.609 19.585-1.741.087-.029.175-.029.262-.029.87-21.82 18.86-39.23 40.941-39.23 7.66 0 14.827 2.118 20.979 5.775.87-.9 1.683-1.858 2.524-2.815 9.692-10.968 17.323-23.793 22.198-37.953-.029-.029-.059-.058-.088-.058-11.316-7.312-18.831-20.021-18.831-34.5 0-4.991.9-9.75 2.524-14.16-7.602 2.205-15.581 3.395-23.851 3.395zm20.37-63.226c-1.77.899-3.627 1.654-5.514 2.292a40.93 40.93 0 0 1-13.144 2.176c-22.661 0-41.028-18.367-41.028-41.028 0-.29.029-.581.029-.871-.029 0-.059 0-.088-.029-8.617-2.118-17.641-3.25-26.926-3.25-6.674 0-13.203.61-19.557 1.741-.058 0-.145.029-.203.029-.929 21.849-18.919 39.259-41 39.259-7.689 0-14.885-2.118-21.037-5.803l-.087.087c-10.881 11.49-19.324 25.273-24.605 40.564-.029.058-.029.087-.058.145 11.316 7.313 18.831 20.022 18.831 34.501 0 14.972-8.008 28.058-19.992 35.225v.029c.029.087.058.203.087.29 4.469 14.363 11.723 27.507 21.153 38.766 18.773-9.895 33.426-26.492 40.767-46.629.029-.058.058-.116.058-.174 3.308-9.111 5.107-18.948 5.107-29.219 0-6.906-.841-13.638-2.379-20.08 18.222-3.452 34.384-12.65 46.571-25.621 11.519 12.274 26.607 21.153 43.611 24.983l.87.174c5.832 1.248 11.897 1.944 18.106 1.944 14.508 0 28.146-3.598 40.129-9.952.407-.261.813-.551 1.248-.813-4.381-14.334-11.577-27.478-20.949-38.736z" fill="#07c1d8"/></svg>