<?xml version="1.0" standalone="no"?>
<!DOCTYPE svg PUBLIC "-//W3C//DTD SVG 20010904//EN"
 "http://www.w3.org/TR/2001/REC-SVG-20010904/DTD/svg10.dtd">
<svg version="1.0" xmlns="http://www.w3.org/2000/svg"
 width="640.000000pt" height="640.000000pt" viewBox="0 0 640.000000 640.000000"
 preserveAspectRatio="xMidYMid meet">
<metadata>
Created by potrace 1.11, written by Peter Selinger 2001-2013
</metadata>
<g transform="translate(0.000000,640.000000) scale(0.100000,-0.100000)"
fill="#000000" stroke="none">
<path d="M3039 6386 c-2 -2 -51 -7 -109 -11 -57 -3 -107 -8 -111 -11 -4 -2
-36 -7 -71 -10 -34 -3 -64 -9 -66 -14 -2 -4 -11 -6 -21 -3 -20 5 -21 0 -36
-117 -7 -54 -41 -197 -54 -225 -112 -250 -190 -361 -351 -496 -72 -60 -130
-98 -212 -141 -37 -20 -64 -39 -60 -43 4 -5 2 -5 -4 -2 -6 3 -44 -5 -85 -19
-145 -50 -230 -63 -401 -62 -88 1 -161 5 -164 10 -3 4 -16 8 -28 8 -45 0 -199
51 -291 96 l-94 46 -33 -38 c-18 -21 -32 -42 -30 -47 1 -4 -1 -6 -6 -3 -12 7
-44 -33 -36 -46 4 -6 3 -8 -3 -5 -10 6 -79 -73 -149 -173 -21 -30 -41 -57 -44
-60 -16 -15 -118 -180 -173 -280 -84 -152 -149 -298 -141 -312 4 -7 2 -8 -4
-4 -7 4 -12 2 -12 -4 0 -7 -6 -26 -14 -43 -7 -18 -23 -55 -34 -83 l-20 -52 62
-45 c113 -83 216 -195 297 -321 24 -38 44 -72 45 -75 0 -3 13 -33 28 -66 73
-157 106 -326 99 -508 -4 -107 -7 -141 -17 -182 -26 -108 -49 -190 -56 -204
-5 -9 -24 -47 -43 -86 -42 -88 -73 -138 -132 -209 -25 -31 -43 -62 -39 -68 4
-6 3 -8 -3 -5 -5 4 -23 -8 -39 -25 -28 -29 -183 -152 -219 -173 -17 -10 -17
-13 0 -65 58 -179 177 -441 275 -610 89 -154 281 -423 309 -435 30 -12 359
208 490 329 236 217 416 452 550 716 55 108 108 232 116 269 2 9 13 42 24 75
11 32 19 62 16 66 -3 5 -1 10 3 12 7 3 46 145 57 208 2 14 7 39 10 55 3 17 7
50 10 75 3 25 8 68 11 95 7 60 7 59 4 65 -7 19 -7 39 1 34 10 -6 5 342 -6 426
-8 62 -27 181 -32 205 -2 11 -6 34 -10 51 l-5 31 108 26 c133 33 123 30 214
60 162 54 438 185 433 206 -2 6 3 8 10 6 6 -3 48 19 91 48 44 28 88 57 98 63
10 6 31 22 46 35 15 13 48 39 72 58 69 53 109 94 103 105 -3 5 -1 6 5 2 6 -3
38 21 72 54 l61 61 55 -56 c30 -30 56 -55 58 -55 2 0 24 -19 49 -42 52 -51
126 -111 141 -117 5 -2 22 -15 36 -28 14 -13 31 -21 38 -18 7 3 11 1 8 -4 -12
-19 260 -177 414 -241 41 -17 89 -38 107 -46 17 -8 36 -14 43 -14 7 0 26 -7
43 -15 29 -13 93 -32 186 -55 19 -5 38 -7 42 -4 4 2 9 0 11 -5 2 -8 112 -30
231 -47 167 -23 454 -23 632 2 34 5 241 46 298 59 143 33 506 182 538 221 13
16 1 57 -72 242 -110 280 -276 567 -467 809 l-41 52 -79 -34 c-68 -30 -147
-55 -217 -70 -65 -15 -112 -19 -215 -19 -64 -1 -118 -5 -122 -11 -5 -6 -8 -6
-8 1 0 6 -6 11 -12 11 -19 1 -75 10 -140 23 -78 15 -308 106 -308 122 0 5 -6
8 -13 8 -35 0 -253 186 -320 273 -12 16 -31 41 -43 55 -57 72 -147 263 -174
371 -18 69 -39 195 -33 204 2 4 0 7 -6 7 -6 0 -6 11 -1 30 5 16 5 32 1 35 -5
2 -6 15 -4 28 4 22 0 24 -99 45 -102 22 -164 33 -203 37 -11 1 -45 5 -75 9
-30 4 -73 9 -95 12 -49 6 -441 14 -446 10z m-1753 -3381 c-1 -8 -5 -17 -8 -21
-5 -4 -4 16 1 34 3 9 9 -1 7 -13z"/>
<path d="M5718 3535 c-3 -3 -45 -14 -94 -25 -94 -20 -119 -24 -199 -36 -27 -3
-59 -9 -70 -11 -54 -13 -447 -11 -550 3 -102 13 -302 50 -331 61 -26 10 -35
-72 -39 -337 -4 -234 4 -325 45 -530 20 -97 18 -108 -20 -111 -17 -1 -16 0
-120 -22 -41 -9 -87 -20 -102 -26 -16 -6 -28 -9 -28 -6 0 14 -291 -98 -425
-165 -239 -118 -438 -258 -618 -434 -44 -43 -83 -76 -87 -74 -5 2 -39 33 -77
69 -93 90 -219 190 -334 266 -99 64 -337 193 -358 193 -12 0 -14 -4 -55 -110
-134 -348 -376 -690 -664 -939 l-63 -55 99 -32 c170 -55 318 -143 439 -261
216 -210 335 -463 359 -763 3 -41 7 -77 9 -79 5 -5 162 -41 205 -47 19 -2 44
-6 55 -9 11 -2 43 -7 70 -10 28 -4 61 -8 74 -10 141 -23 584 -23 721 -1 14 3
48 7 75 11 90 11 120 17 127 23 4 4 10 36 13 71 24 253 143 499 335 691 165
165 381 284 575 316 17 3 42 9 56 13 37 12 304 12 364 0 156 -31 236 -58 347
-115 l67 -34 68 78 c269 305 490 674 614 1027 l17 49 -51 35 c-79 52 -228 207
-286 296 -97 148 -159 304 -184 466 -25 160 -8 389 39 524 7 22 14 43 14 48 0
8 -24 10 -32 2z"/>
</g>
</svg>
